<svg viewBox="0 0 64 64" fill="none" xmlns="http://www.w3.org/2000/svg">
    <rect width="64" height="64" rx="12" fill="#101827"/>
    <rect x="1" y="1" width="62" height="62" rx="11" stroke="#1E293B" stroke-width="2"/>
    <g transform="translate(-23.5, -3) scale(0.95)">
        <path d="M 55.6,64.4 C 41.4,64.4 29.6,56.6 24.8,45.2 L 31.2,42.4 C 35.2,51.8 44.4,58.2 55.6,58.2 C 68.8,58.2 78.8,48.2 78.8,35 C 78.8,21.8 68.8,11.8 55.6,11.8 C 44.4,11.8 35.2,18.2 31.2,27.6 L 24.8,24.8 C 29.6,13.4 41.4,5.6 55.6,5.6 C 73.2,5.6 86.8,18.8 86.8,35 C 86.8,51.2 73.2,64.4 55.6,64.4 Z" fill="#F97316"/>
        <g fill="#101827">
            <rect x="42" y="19" width="22" height="3" rx="1.5"/>
            <rect x="42" y="33" width="22" height="3" rx="1.5"/>
            <rect x="42" y="47" width="22" height="3" rx="1.5"/>
            <circle cx="45" cy="20.5" r="3.5"/>
            <circle cx="45" cy="34.5" r="3.5"/>
            <circle cx="45" cy="48.5" r="3.5"/>
            <circle cx="61" cy="20.5" r="3.5"/>
            <circle cx="61" cy="34.5" r="3.5"/>
            <circle cx="61" cy="48.5" r="3.5"/>
        </g>
    </g>
</svg>